<svg width="90" height="98" viewBox="0 0 90 98" fill="none" xmlns="http://www.w3.org/2000/svg">
<path d="M34.1653 9.46752C26.5534 11.3765 19.5788 15.2575 13.944 20.7196C8.30919 26.1817 4.21305 33.032 2.06809 40.5809C-0.0768733 48.1297 -0.194921 56.1105 1.72583 63.7194C3.64658 71.3284 7.53832 78.297 13.0091 83.9233C18.4799 89.5497 25.3367 93.6352 32.8888 95.7685C40.4409 97.9018 48.4219 98.0075 56.0279 96.075C63.6339 94.1425 70.5964 90.24 76.2143 84.7605C81.8322 79.281 85.9071 72.4179 88.0287 64.8625L45.0296 52.7882L34.1653 9.46752Z" fill="url(#paint0_linear_531_176)" fill-opacity="0.75"/>
<path d="M50.8094 3.39648L83.2815 33.3464C83.8162 33.8423 84.2419 34.4442 84.5314 35.1136C84.8208 35.783 84.9678 36.5053 84.9629 37.2347V66.449C84.9629 67.8425 84.4093 69.179 83.4239 70.1644C82.4385 71.1498 81.102 71.7033 79.7085 71.7033H21.9104C20.5168 71.7033 19.1804 71.1498 18.195 70.1644C17.2096 69.179 16.656 67.8425 16.656 66.449V37.2347C16.6511 36.5053 16.798 35.783 17.0875 35.1136C17.377 34.4442 17.8026 33.8423 18.3374 33.3464L50.8094 3.39648ZM50.8094 3.39648V42.8043M16.656 42.8043H84.9629M16.656 57.2538H35.0463M66.5726 57.2538H84.9629M35.0463 71.7033V17.9511M66.5726 71.7033V17.9511" stroke="white" stroke-width="3" stroke-linecap="round" stroke-linejoin="round"/>
<defs>
<linearGradient id="paint0_linear_531_176" x1="15.6051" y1="83.789" x2="83.3866" y2="27.5672" gradientUnits="userSpaceOnUse">
<stop stop-color="white"/>
<stop offset="1" stop-color="#548C2F" stop-opacity="0"/>
</linearGradient>
</defs>
</svg>
