<svg width="43" height="43" viewBox="0 0 43 43" fill="none" xmlns="http://www.w3.org/2000/svg">
<path d="M21.5 3.58301C14.5663 3.58301 8.95837 9.19092 8.95837 16.1247C8.95837 25.5309 21.5 39.4163 21.5 39.4163C21.5 39.4163 34.0417 25.5309 34.0417 16.1247C34.0417 9.19092 28.4338 3.58301 21.5 3.58301ZM21.5 20.6038C20.3121 20.6038 19.1728 20.1319 18.3328 19.2919C17.4928 18.4519 17.0209 17.3126 17.0209 16.1247C17.0209 14.9367 17.4928 13.7974 18.3328 12.9574C19.1728 12.1174 20.3121 11.6455 21.5 11.6455C22.688 11.6455 23.8273 12.1174 24.6673 12.9574C25.5073 13.7974 25.9792 14.9367 25.9792 16.1247C25.9792 17.3126 25.5073 18.4519 24.6673 19.2919C23.8273 20.1319 22.688 20.6038 21.5 20.6038Z" fill="white"/>
</svg>
