<svg width="40" height="40" viewBox="0 0 40 40" fill="none" xmlns="http://www.w3.org/2000/svg">
<path d="M21.6667 20.2913V14.9997C21.6667 14.5275 21.5067 14.1313 21.1867 13.8113C20.8667 13.4913 20.4712 13.3319 20 13.333C19.5278 13.333 19.1317 13.493 18.8117 13.813C18.4917 14.133 18.3323 14.5286 18.3334 14.9997V19.9997C18.3334 20.5552 18.4306 21.0691 18.625 21.5413C18.8195 22.0136 19.1112 22.4441 19.5 22.833L23.0417 26.3747C23.375 26.708 23.7712 26.8747 24.23 26.8747C24.6889 26.8747 25.0845 26.708 25.4167 26.3747C25.7223 26.0413 25.875 25.6452 25.875 25.1863C25.875 24.7275 25.7223 24.3458 25.4167 24.0413L21.6667 20.2913ZM20 6.66634C19.5278 6.66634 19.1317 6.82634 18.8117 7.14634C18.4917 7.46634 18.3323 7.8619 18.3334 8.33301C18.3334 8.80523 18.4934 9.20134 18.8134 9.52134C19.1334 9.84134 19.5289 10.0008 20 9.99967C20.4723 9.99967 20.8684 9.83967 21.1884 9.51967C21.5084 9.19967 21.6678 8.80412 21.6667 8.33301C21.6667 7.86079 21.5067 7.46467 21.1867 7.14467C20.8667 6.82467 20.4712 6.66523 20 6.66634ZM33.3334 19.9997C33.3334 19.5275 33.1734 19.1313 32.8534 18.8113C32.5334 18.4913 32.1378 18.3319 31.6667 18.333C31.1945 18.333 30.7984 18.493 30.4784 18.813C30.1584 19.133 29.9989 19.5286 30 19.9997C30 20.4719 30.16 20.868 30.48 21.188C30.8 21.508 31.1956 21.6675 31.6667 21.6663C32.1389 21.6663 32.535 21.5063 32.855 21.1863C33.175 20.8663 33.3345 20.4708 33.3334 19.9997ZM20 29.9997C19.5278 29.9997 19.1317 30.1597 18.8117 30.4797C18.4917 30.7997 18.3323 31.1952 18.3334 31.6663C18.3334 32.1386 18.4934 32.5347 18.8134 32.8547C19.1334 33.1747 19.5289 33.3341 20 33.333C20.4723 33.333 20.8684 33.173 21.1884 32.853C21.5084 32.533 21.6678 32.1375 21.6667 31.6663C21.6667 31.1941 21.5067 30.798 21.1867 30.478C20.8667 30.158 20.4712 29.9986 20 29.9997ZM10 19.9997C10 19.5275 9.84004 19.1313 9.52004 18.8113C9.20004 18.4913 8.80448 18.3319 8.33337 18.333C7.86115 18.333 7.46504 18.493 7.14504 18.813C6.82504 19.133 6.6656 19.5286 6.66671 19.9997C6.66671 20.4719 6.82671 20.868 7.14671 21.188C7.46671 21.508 7.86226 21.6675 8.33337 21.6663C8.8056 21.6663 9.20171 21.5063 9.52171 21.1863C9.84171 20.8663 10.0012 20.4708 10 19.9997ZM20 36.6663C17.6945 36.6663 15.5278 36.2286 13.5 35.353C11.4723 34.4775 9.70837 33.2902 8.20837 31.7913C6.70837 30.2913 5.52115 28.5275 4.64671 26.4997C3.77226 24.4719 3.33449 22.3052 3.33337 19.9997C3.33337 17.6941 3.77115 15.5275 4.64671 13.4997C5.52226 11.4719 6.70949 9.70801 8.20837 8.20801C9.70837 6.70801 11.4723 5.52079 13.5 4.64634C15.5278 3.7719 17.6945 3.33412 20 3.33301C22.3056 3.33301 24.4723 3.77079 26.5 4.64634C28.5278 5.5219 30.2917 6.70912 31.7917 8.20801C33.2917 9.70801 34.4795 11.4719 35.355 13.4997C36.2306 15.5275 36.6678 17.6941 36.6667 19.9997C36.6667 22.3052 36.2289 24.4719 35.3534 26.4997C34.4778 28.5275 33.2906 30.2913 31.7917 31.7913C30.2917 33.2913 28.5278 34.4791 26.5 35.3547C24.4723 36.2302 22.3056 36.6674 20 36.6663Z" fill="white"/>
</svg>
