<svg width="109" height="121" viewBox="0 0 109 121" fill="none" xmlns="http://www.w3.org/2000/svg">
<path d="M34.1653 32.4226C26.5534 34.3316 19.5788 38.2125 13.944 43.6746C8.30919 49.1367 4.21305 55.9871 2.06809 63.536C-0.0768733 71.0848 -0.194921 79.0655 1.72583 86.6745C3.64658 94.2835 7.53832 101.252 13.0091 106.878C18.4799 112.505 25.3367 116.59 32.8888 118.724C40.4409 120.857 48.4219 120.963 56.0279 119.03C63.6339 117.098 70.5964 113.195 76.2143 107.716C81.8322 102.236 85.9071 95.373 88.0287 87.8176L45.0296 75.7432L34.1653 32.4226Z" fill="url(#paint0_linear_531_180)" fill-opacity="0.75"/>
<path d="M61.7123 96.2676C59.7101 92.483 57.4881 88.6392 56.0543 84.8269C54.342 80.2749 53.7627 75.9609 55.7207 71.5912C58.3261 71.8763 61.1485 71.6273 63.5518 71.0377C65.9813 75.5808 66.3259 80.2686 65.5169 84.9778C64.8517 88.8491 63.3918 92.6899 61.7123 96.2676ZM35.017 92.0693C35.9055 88.5423 36.7021 84.7103 37.747 80.9693C39.3383 75.2725 41.5366 70.0789 45.0483 67.0327C47.1941 68.7988 49.6741 70.114 52.3399 70.8996C51.1204 74.8695 47.714 79.4588 43.6205 83.7729C40.7975 86.748 37.8295 89.495 35.017 92.0693ZM81.1841 85.6606C77.7132 82.839 74.4995 80.6629 72.0986 78.4271C69.3986 75.9125 67.6904 73.4735 67.2867 69.6123C69.6577 68.4409 71.7838 66.8283 73.5512 64.8609C76.8732 67.7767 78.5745 71.0026 79.6069 74.7545C80.4936 77.9762 80.8444 81.708 81.1841 85.6606ZM19.6537 75.6309C21.3679 72.0696 23.425 68.5127 26.0074 65.5529C29.149 61.9524 33.0019 59.2607 38.0591 58.2767C39.687 60.3093 41.0618 62.8866 42.5969 64.6548C40.4472 68.9611 36.7253 71.2452 32.0979 72.7965C28.2363 74.091 23.8526 74.7945 19.6537 75.6309ZM102.248 69.8013C98.6502 69.2642 94.7587 68.8484 90.933 68.1769C85.0084 67.1365 79.5386 65.4217 76.1739 62.1201L79.3431 54.6181C83.4396 55.4031 88.3979 58.3673 93.1449 62.0559C96.3834 64.5723 99.4088 67.2557 102.248 69.8013ZM58.1656 68.1895C48.6771 68.1895 41.0232 60.5355 41.0232 51.0471C41.0232 41.5587 48.6771 33.9047 58.1656 33.9047C67.654 33.9047 75.308 41.5587 75.308 51.0471C75.308 60.5355 67.654 68.1895 58.1656 68.1895ZM58.1656 65.7854C66.2844 65.7854 72.9039 59.1659 72.9039 51.0471C72.9039 42.9283 66.2844 36.3088 58.1656 36.3088C50.0468 36.3088 43.4272 42.9283 43.4272 51.0471C43.4272 59.1659 50.0468 65.7854 58.1656 65.7854ZM61.2742 64.0747L60.4423 60.6274L63.2801 59.9424L64.1122 63.3898L61.2742 64.0747ZM53.3235 62.3631V58.8164H57.0422V62.3631H53.3235ZM47.876 58.6424L46.1144 55.609L49.1818 53.8279L50.9433 56.8613L47.876 58.6424ZM66.0844 58.0509L62.7575 57.7573L63.0693 54.224L66.3961 54.5176L66.0844 58.0509ZM58.2842 56.1333L55.166 54.1393L57.0773 51.1514L60.1953 53.1454L58.2842 56.1333ZM33.3914 55.5883C29.5961 55.5501 25.5392 54.5398 22.6508 53.2634C19.6229 51.8501 16.5544 49.6982 13.3246 47.3946C17.7229 46.5808 21.4631 45.5444 24.7217 45.1655C28.7699 44.6952 33.8218 45.4776 37.4244 48.3595L37.0465 55.2762C35.8925 55.5055 34.6564 55.6009 33.3914 55.5883ZM68.5952 52.8536L67.3375 49.5378L70.1749 48.4614L71.4326 51.7771L68.5952 52.8536ZM48.8761 52.3813L48.7686 48.8361L51.9976 48.738L52.1054 52.2831L48.8761 52.3813ZM82.9312 51.5031C81.7202 51.4897 80.4662 51.3559 79.1151 51.0932C78.7291 48.0636 77.7564 44.9691 77.1733 42.455C80.778 39.6835 84.6817 39.0935 89.2889 39.5599C93.3114 39.9672 97.8573 41.2606 102.628 42.5748C99.5 45.1604 96.211 47.5666 92.7124 49.2141C89.2628 50.6438 86.4651 51.4495 83.4476 51.5017C83.2756 51.5046 83.1035 51.5052 82.9314 51.5033L82.9312 51.5031ZM63.1755 49.1644L59.1634 49.0663L59.2505 45.5204L63.2624 45.6185L63.1755 49.1644ZM50.2464 46.1606L49.3557 42.7273L53.0356 41.9043L53.9263 45.3375L50.2464 46.1606ZM67.2144 46.0455L64.6702 44.0887L66.8321 41.2769L69.3763 43.2339L67.2144 46.0455ZM38.6043 42.9248C33.9967 42.6893 31.3489 40.863 28.6331 37.8242C26.3633 35.284 22.9791 31.2754 20.0708 27.5908C24.3602 27.6903 29.3906 28.5494 32.726 29.5608C36.6574 30.7529 39.9349 32.8981 42.8125 37.1969C41.1757 39.2697 40.2194 40.8913 38.6045 42.9248H38.6043ZM60.4303 41.8704L57.299 41.7727L57.4097 38.2274L60.5413 38.3253L60.4303 41.8704ZM74.6368 38.545C73.5874 36.1401 68.5724 33.8235 67.6957 32.3327C73.1236 24.5879 83.6744 21.6873 92.5851 21.1409C90.0157 24.7355 87.2982 28.7175 84.2289 32.0104C81.3198 35.1315 78.1912 37.536 74.6368 38.545ZM45.7001 34.5481C43.108 31.427 41.034 26.4186 39.4849 21.0061C38.3564 17.0634 37.4983 13.1114 36.7098 9.38085C39.2965 11.9378 42.1922 14.5709 44.8835 17.3714C49.047 21.7037 52.4471 26.3118 53.2189 30.9578C50.4945 31.6305 47.936 32.8521 45.7001 34.5479V34.5481ZM64.8399 30.3413L56.2937 29.7163C54.8547 20.6806 60.1348 11.8088 65.6538 6.09167C68.0055 14.1799 69.6598 24.2803 64.8399 30.3413Z" fill="white"/>
<defs>
<linearGradient id="paint0_linear_531_180" x1="15.6051" y1="106.744" x2="83.3866" y2="50.5222" gradientUnits="userSpaceOnUse">
<stop stop-color="white"/>
<stop offset="1" stop-color="#548C2F" stop-opacity="0"/>
</linearGradient>
</defs>
</svg>
