<svg width="98" height="103" viewBox="0 0 98 103" fill="none" xmlns="http://www.w3.org/2000/svg">
<path d="M9.29918 68.6074C11.2082 76.2193 15.0891 83.1939 20.5512 88.8287C26.0133 94.4635 32.8637 98.5597 40.4125 100.705C47.9614 102.85 55.9421 102.968 63.5511 101.047C71.1601 99.1261 78.1286 95.2344 83.755 89.7636C89.3814 84.2928 93.4669 77.436 95.6002 69.8839C97.7335 62.3318 97.8392 54.3508 95.9066 46.7448C93.9741 39.1389 90.0716 32.1763 84.5921 26.5584C79.1126 20.9405 72.2496 16.8656 64.6941 14.744L52.6198 57.7431L9.29918 68.6074Z" fill="url(#paint0_linear_531_194)" fill-opacity="0.75"/>
<path d="M60.1511 56.5175V77.535M39.1336 67.0262V77.535M49.6423 35.5V36.2005C47.345 37.084 45.4307 38.7458 44.2332 40.8961C43.0357 43.0465 42.6309 45.549 43.0896 47.9672C43.5482 50.3854 44.8411 52.5659 46.7428 54.1284C48.6445 55.691 51.0343 56.5365 53.4955 56.5175H67.1569C69.5887 56.457 71.9243 55.5547 73.7651 53.9645C75.606 52.3743 76.8382 50.1947 77.2515 47.7975C77.6648 45.4003 77.2337 42.9339 76.0316 40.8191C74.8295 38.7042 72.931 37.0719 70.6598 36.2005V35.5C70.6598 32.7129 69.5527 30.0399 67.5819 28.0692C65.6111 26.0984 62.9382 24.9912 60.1511 24.9912C57.364 24.9912 54.691 26.0984 52.7203 28.0692C50.7495 30.0399 49.6423 32.7129 49.6423 35.5Z" stroke="white" stroke-width="3" stroke-linecap="round" stroke-linejoin="round"/>
<path d="M42.6364 67.0262H13.5622C12.8766 67.0165 12.2089 66.8059 11.6419 66.4204C11.0748 66.0348 10.6334 65.4913 10.3724 64.8573C10.1113 64.2233 10.042 63.5266 10.1732 62.8536C10.3043 62.1805 10.6301 61.5608 11.1102 61.0712L21.6189 49.5116H20.5681C19.8824 49.5019 19.2147 49.2913 18.6477 48.9058C18.0807 48.5202 17.6393 47.9768 17.3782 47.3427C17.1171 46.7087 17.0479 46.012 17.179 45.339C17.3102 44.666 17.636 44.0462 18.116 43.5566L28.6248 31.997H27.9242C27.2087 32.0615 26.4907 31.9045 25.8674 31.5473C25.2442 31.19 24.7458 30.6498 24.44 29.9998C24.1341 29.3498 24.0354 28.6214 24.1574 27.9135C24.2794 27.2055 24.6161 26.5522 25.1218 26.042L39.1335 10.9795L44.0376 16.2339" stroke="white" stroke-width="3" stroke-linecap="round" stroke-linejoin="round"/>
<defs>
<linearGradient id="paint0_linear_531_194" x1="83.6206" y1="87.1676" x2="27.3988" y2="19.3862" gradientUnits="userSpaceOnUse">
<stop stop-color="white"/>
<stop offset="1" stop-color="#548C2F" stop-opacity="0"/>
</linearGradient>
</defs>
</svg>
