<svg width="43" height="43" viewBox="0 0 43 43" fill="none" xmlns="http://www.w3.org/2000/svg">
<path d="M34.4537 27.3405L29.9029 26.8209C29.3678 26.7581 28.8254 26.8173 28.3165 26.9942C27.8075 27.1711 27.3453 27.461 26.9645 27.8422L23.6679 31.1388C18.5817 28.5521 14.4476 24.418 11.8608 19.3317L15.1754 16.0172C15.9458 15.2467 16.322 14.1717 16.1966 13.0788L15.677 8.56383C15.5755 7.68981 15.156 6.88367 14.4985 6.29889C13.8411 5.71411 12.9915 5.39153 12.1116 5.39258H9.01203C6.98745 5.39258 5.30328 7.07675 5.4287 9.10133C6.37828 24.4022 18.6154 36.6213 33.8983 37.5709C35.9229 37.6963 37.607 36.0122 37.607 33.9876V30.888C37.625 29.0784 36.2633 27.5555 34.4537 27.3405Z" fill="white"/>
</svg>
