<svg width="43" height="43" viewBox="0 0 43 43" fill="none" xmlns="http://www.w3.org/2000/svg">
<path d="M35.8334 14.3337L21.5 23.292L7.16671 14.3337V10.7503L21.5 19.7087L35.8334 10.7503M35.8334 7.16699H7.16671C5.17796 7.16699 3.58337 8.76158 3.58337 10.7503V32.2503C3.58337 33.2007 3.9609 34.1121 4.63291 34.7841C5.30491 35.4561 6.21635 35.8337 7.16671 35.8337H35.8334C36.7837 35.8337 37.6952 35.4561 38.3672 34.7841C39.0392 34.1121 39.4167 33.2007 39.4167 32.2503V10.7503C39.4167 9.79997 39.0392 8.88853 38.3672 8.21653C37.6952 7.54452 36.7837 7.16699 35.8334 7.16699Z" fill="white"/>
</svg>
