<svg width="96" height="97" viewBox="0 0 96 97" fill="none" xmlns="http://www.w3.org/2000/svg">
<path d="M7.1975 62.6533C9.10648 70.2652 12.9874 77.2398 18.4495 82.8746C23.9116 88.5094 30.762 92.6056 38.3109 94.7505C45.8597 96.8955 53.8404 97.0135 61.4494 95.0928C69.0584 93.172 76.0269 89.2803 81.6533 83.8095C87.2797 78.3387 91.3652 71.4819 93.4985 63.9298C95.6318 56.3777 95.7375 48.3967 93.805 40.7907C91.8724 33.1847 87.9699 26.2222 82.4904 20.6043C77.0109 14.9864 70.1479 10.9115 62.5925 8.7899L50.5181 51.789L7.1975 62.6533Z" fill="url(#paint0_linear_531_190)" fill-opacity="0.75"/>
<path d="M28.765 58.058C32.303 49.2657 36.2963 39.2123 51.3939 35.8495C51.3939 35.8495 33.8793 35.8495 28.2046 52.068C28.2046 52.068 25.122 48.9854 25.122 45.4825C25.122 41.9796 28.6249 34.5534 37.3822 32.802C39.8693 32.3466 42.6366 31.8912 45.3688 31.5059C52.2696 30.5951 58.8901 29.6143 60.1511 27.0922C60.1511 27.0922 54.8968 56.867 35.6307 56.867C35.0002 56.867 34.1245 56.6568 33.2838 56.3416L31.6374 60.3699L28.3096 59.214L28.765 58.058ZM42.6366 14.832C58.0844 14.832 70.6599 27.4075 70.6599 42.8553C70.6599 58.3032 58.0844 70.8787 42.6366 70.8787C27.1887 70.8787 14.6133 58.3032 14.6133 42.8553C14.6133 27.4075 27.1887 14.832 42.6366 14.832ZM42.6366 7.82617C23.3705 7.82617 7.60742 23.5893 7.60742 42.8553C7.60742 62.1214 23.3705 77.8845 42.6366 77.8845C61.9026 77.8845 77.6657 62.1214 77.6657 42.8553C77.6657 23.5893 61.9026 7.82617 42.6366 7.82617Z" fill="white"/>
<defs>
<linearGradient id="paint0_linear_531_190" x1="81.519" y1="81.2135" x2="25.2971" y2="13.4321" gradientUnits="userSpaceOnUse">
<stop stop-color="white"/>
<stop offset="1" stop-color="#548C2F" stop-opacity="0"/>
</linearGradient>
</defs>
</svg>
